<?xml version="1.0" encoding="UTF-8"?>
<svg viewBox="0 0 1138 925" version="1.1" xmlns="http://www.w3.org/2000/svg" xmlns:xlink="http://www.w3.org/1999/xlink">
    <!-- Generator: Sketch 60.1 (88133) - https://sketch.com -->
    <title>strokes copy</title>
    <desc>Created with Sketch.</desc>
    <g id="strokes-copy" stroke="none" stroke-width="1" fill="none" fill-rule="evenodd" stroke-linecap="round" stroke-linejoin="round">
        <g id="Group-4" transform="translate(712.000000, 459.000000)" stroke="#0000B4" stroke-width="2">
            <g id="Group-7" transform="translate(170.000000, 279.000000)">
                <path d="M50.4579356,100.998156 L67.8472173,130.96582 L47.4639932,165.987766 C45.6628246,169.083938 45.6648259,172.910151 47.4739997,176.000322 L47.5180282,176.074326 C49.3011851,179.124496 52.5693054,180.9986 56.101597,180.9986 L56.2576983,180.9986 C59.8120042,180.9986 63.0921323,179.104495 64.8692853,176.028324 L85.1084158,140.996378 L119.818935,140.996378 L140.106097,176.036324 C141.88325,179.106495 145.163378,180.9986 148.713681,180.9986 L148.777723,180.9986 C152.364049,180.9986 155.670194,179.070493 157.43534,175.95032 L157.445346,175.934319 C159.174468,172.874149 159.160459,169.127941 157.40532,166.083771 L137.176196,130.96582 L154.435393,100.998156 L195.021725,100.966154 C198.594042,100.962154 201.888179,99.0460471 203.655326,95.9458748 L203.697353,95.8718707 C205.436481,92.8197012 205.43448,89.0754932 203.691349,86.0253237 L203.663331,85.9753209 C201.892182,82.8751487 198.592041,80.9610424 195.017722,80.9650426 L154.435393,80.9970444 L137.176196,50.9533753 L157.403319,15.9814324 C159.186476,12.9012613 159.184474,9.10305025 157.399316,6.02287913 L157.357289,5.95287524 C155.578135,2.88670489 152.302009,0.9986 148.753707,0.9986 C145.209408,0.9986 141.92928,2.88670489 140.150125,5.95287524 L119.818935,40.9988222 L85.2685197,41.0528252 L64.8732878,5.94887502 C63.0941336,2.88470478 59.8180081,0.9986 56.2737087,0.9986 L56.101597,0.9986 C52.5693054,0.9986 49.3011851,2.87470423 47.5180282,5.92287357 L47.4780023,5.99287746 C45.6668272,9.08704936 45.6648259,12.915262 47.4719984,16.011434 L67.8472173,50.9533753 L50.4939589,80.9970444 L9.9856783,80.9650426 C6.44938405,80.9610424 3.17726119,82.8351465 1.39210303,85.887316 L1.36008225,85.9453193 C-0.453094085,89.0434914 -0.453094085,92.8777044 1.36008225,95.9758765 L1.39810692,96.0418802 C3.17926249,99.0880494 6.44538145,100.962154 9.97367051,100.966154 L50.4579356,100.998156 Z" id="Stroke-1" fill="#FFFFFF"></path>
                <path d="M119.7416,40.9964 L79.3756,110.9764 L67.8276,90.9784 L77.9176,73.4284 C78.7916,71.9104 78.7976,70.0404 77.9356,68.5164 L77.9316,68.5084 C76.0456,65.1724 71.2516,65.1444 69.3256,68.4564 L56.8176,89.9744 C56.4556,90.5944 56.4556,91.3604 56.8156,91.9824 L73.6256,120.9784" id="Stroke-3"></path>
                <path d="M85.0542,140.9886 L125.5862,70.9766 L136.9722,90.9786 L126.9242,108.4866 C126.0382,110.0266 126.0442,111.9246 126.9422,113.4586 L127.0182,113.5906 C128.9422,116.8806 133.7022,116.8626 135.6002,113.5606 L148.0122,91.9766 C148.3662,91.3586 148.3662,90.5966 148.0102,89.9786 L131.2402,60.9786" id="Stroke-5"></path>
            </g>
            <g id="Group-5" transform="translate(246.000000, 177.000000)">
                <path d="M85.3855399,5.0004 L106.286409,5.02839254 C107.713296,5.03239147 109.031658,5.78419099 109.75113,7.01186361 L120.338225,25.0270596 L112.363739,39.1352974 L115.772188,45.0217276 L131.893994,45.0217276 L142.452952,62.9969343 C143.184483,64.2486005 143.184483,65.7881899 142.452952,67.0358572 L131.893994,85.0110638 L115.772188,85.0070649 L112.271293,91.0334579 L120.338225,105.005732 L109.75515,123.020928 C109.031658,124.2486 107.709276,125.0004 106.28239,125.0004 L85.477986,125.0004 L77.4432095,111.188083 L70.7187567,111.080112 L62.177536,125.0004 L41.3932292,125.0004 C39.9542847,125.0004 38.6278834,124.236604 37.9084111,122.996934 L27.5102286,105.005732 L35.7580332,91.2893896 L32.0802841,85.0070649 L15.7655477,85.0110638 L5.52010234,66.98787 C4.82876589,65.7641963 4.82876589,64.2685951 5.52010234,63.0489204 L15.7655477,45.0217276 L32.0762647,45.0217276 L35.6535289,38.8833645 L27.5102286,25.0270596 L37.9084111,7.03985615 C38.6278834,5.80018672 39.9542847,5.03239147 41.3932292,5.03239147 L62.177536,5.03239147 L70.3248557,18.9806719 L77.7647613,18.9966677 L85.3855399,5.0004 Z M74.0946491,44.9589444 C62.9930719,44.9589444 53.9976592,53.9125568 53.9976592,64.9536125 C53.9976592,75.9986671 62.9930719,84.9482806 74.0946491,84.9482806 C85.1962262,84.9482806 94.1916389,75.9986671 94.1916389,64.9536125 C94.1916389,53.9125568 85.1962262,44.9589444 74.0946491,44.9589444 Z" id="Combined-Shape" fill="#0000B4" opacity="0.296433222"></path>
                <path d="M80.3855399,0.000400000004 L101.286409,0.0283925353 C102.713296,0.0323914689 104.031658,0.784190989 104.75113,2.01186361 L115.338225,20.0270596 L107.363739,34.1352974 L110.772188,40.0217276 L126.893994,40.0217276 L137.452952,57.9969343 C138.184483,59.2486005 138.184483,60.7881899 137.452952,62.0358572 L126.893994,80.0110638 L110.772188,80.0070649 L107.271293,86.0334579 L115.338225,100.005732 L104.75515,118.020928 C104.031658,119.2486 102.709276,120.0004 101.28239,120.0004 L80.477986,120.0004 L72.4432095,106.188083 L65.7187567,106.080112 L57.177536,120.0004 L36.3932292,120.0004 C34.9542847,120.0004 33.6278834,119.236604 32.9084111,117.996934 L22.5102286,100.005732 L30.7580332,86.2893896 L27.0802841,80.0070649 L10.7655477,80.0110638 L0.520102337,61.98787 C-0.171234112,60.7641963 -0.171234112,59.2685951 0.520102337,58.0489204 L10.7655477,40.0217276 L27.0762647,40.0217276 L30.6535289,33.8833645 L22.5102286,20.0270596 L32.9084111,2.03985615 C33.6278834,0.800186724 34.9542847,0.0323914689 36.3932292,0.0323914689 L57.177536,0.0323914689 L65.3248557,13.9806719 L72.7647613,13.9966677 L80.3855399,0.000400000004 Z M69.0946491,39.9589444 C57.9930719,39.9589444 48.9976592,48.9125568 48.9976592,59.9536125 C48.9976592,70.9986671 57.9930719,79.9482806 69.0946491,79.9482806 C80.1962262,79.9482806 89.1916389,70.9986671 89.1916389,59.9536125 C89.1916389,48.9125568 80.1962262,39.9589444 69.0946491,39.9589444 Z" id="Combined-Shape" fill="#FFFFFF"></path>
            </g>
            <g id="Group-3">
                <path d="M164.921272,10 C165.649691,10 166.320509,10.3960269 166.672406,11.0338062 L166.672406,11.0338062 L183.064,40.742 L235.384,69.996 L268.987087,69.996 C269.715604,69.996 270.386497,70.3921331 270.738353,71.0300471 L270.738353,71.0300471 L286.583552,99.7572936 C286.922604,100.371993 286.914552,101.119452 286.562336,101.726704 L286.562336,101.726704 L270.168,129.992 L270.168,189.986 L286.583836,219.7691 C286.922711,220.383917 286.914423,221.131394 286.562,221.738546 L286.562,221.738546 L270.746118,248.986023 C270.388249,249.602557 269.729267,249.982 269.016396,249.982 L269.016396,249.982 L235.384,249.982 L183.064,280.766 L166.680167,308.98228 C166.322259,309.598669 165.663359,309.978 164.950594,309.978 L164.950594,309.978 L132.72658,309.978 C132.029354,309.978 131.382451,309.6149 131.019294,309.019718 L131.019294,309.019718 L113.78,280.766 L62.32,249.982 L28.6682877,249.982 C27.9658122,249.982 27.3148375,249.613455 26.9533744,249.011112 L26.9533744,249.011112 L10.6018907,221.762991 C10.2300909,221.143424 10.2213875,220.371486 10.5791237,219.743693 L10.5791237,219.743693 L27.536,189.986 L27.536,129.992 L10.6015409,101.751163 C10.2299557,101.131487 10.2214995,100.359568 10.5794202,99.7318999 L10.5794202,99.7318999 L26.9604688,71.0052801 C27.3163131,70.3812538 27.9794894,69.996 28.6978444,69.996 L28.6978444,69.996 L62.32,69.996 L113.78,40.742 L131.026044,10.9968317 C131.383786,10.3798156 132.043038,10 132.756262,10 L132.756262,10 Z M148.9508,70.0522 C99.2448,70.0522 58.9508,110.3462 58.9508,160.0522 C58.9508,209.7582 99.2448,250.0522 148.9508,250.0522 C198.6588,250.0522 238.9508,209.7582 238.9508,160.0522 C238.9508,110.3462 198.6588,70.0522 148.9508,70.0522 Z" id="Combined-Shape" fill="#0000B4" opacity="0.3"></path>
                <path d="M155.195196,2.84217094e-14 C155.923106,5.32871651e-14 156.59354,0.395479114 156.945643,1.03256345 L156.945643,1.03256345 L173.366687,30.7442546 L225.778362,60.0004 L259.443354,60.0004 C260.171363,60.0004 260.841872,60.3959854 261.193935,61.0332045 L261.193935,61.0332045 L277.066963,89.7626749 C277.406947,90.3780307 277.398874,91.1267057 277.045701,91.7345876 L277.045701,91.7345876 L260.623311,120.0008 L260.623311,179.9992 L277.067247,209.783282 C277.407053,210.398756 277.398745,211.147449 277.045364,211.755231 L277.045364,211.755231 L261.201667,239.004882 C260.84361,239.620706 260.185027,239.9996 259.472677,239.9996 L259.472677,239.9996 L225.778362,239.9996 L173.366687,270.785858 L156.953371,299.00554 C156.595276,299.621218 155.936775,300 155.22453,300 L155.22453,300 L122.938118,300 C122.241424,300 121.594933,299.637449 121.23161,299.042991 L121.23161,299.042991 L103.961288,270.785858 L52.4111199,239.9996 L18.6974817,239.9996 C17.9955341,239.9996 17.3449678,239.631604 16.9833308,239.029982 L16.9833308,239.029982 L0.603089428,211.779685 C0.23029185,211.159496 0.221567203,210.386307 0.58027524,209.757864 L0.58027524,209.757864 L17.5661715,179.9992 L17.5661715,120.0008 L0.602738935,91.7590556 C0.230156391,91.1387577 0.221679465,90.3655869 0.580572382,89.7372693 L0.580572382,89.7372693 L16.9903905,61.0084258 C17.3464293,60.385105 18.0092116,60.0004 18.7270503,60.0004 L18.7270503,60.0004 L52.4111199,60.0004 L103.961288,30.7442546 L121.238324,0.99557211 C121.596254,0.379266475 122.255108,2.43767465e-14 122.967811,2.84217094e-14 L122.967811,2.84217094e-14 Z M139.193714,60.0566042 C89.4006195,60.0566042 49.0360164,100.353559 49.0360164,150.063205 C49.0360164,199.77285 89.4006195,240.069805 139.193714,240.069805 C188.988813,240.069805 229.351412,199.77285 229.351412,150.063205 C229.351412,100.353559 188.988813,60.0566042 139.193714,60.0566042 Z" id="Combined-Shape" fill="#0000B4"></path>
                <path d="M52.295457,60.0004 L18.6899306,60.0004 C17.9714087,60.0004 17.3081051,60.3858314 16.9523238,61.0100857 L0.578868947,89.7389711 C0.221262204,90.3664284 0.229711781,91.1379433 0.600974837,91.757418 L17.527774,120.0008 L17.527774,120.0008 L17.527774,179.9992 L0.578572638,209.759566 C0.221150308,210.387149 0.229846809,211.158682 0.601324393,211.778048 L16.9452182,239.028302 C17.3066248,239.630877 17.9577317,239.9996 18.6603778,239.9996 L52.295457,239.9996 L52.295457,239.9996 L103.731317,270.785858 L120.962317,299.041306 C121.325419,299.636722 121.972456,300 122.669853,300 L154.877054,300 C155.589987,300 156.249016,299.620491 156.606863,299.003872 L172.982817,270.785858 L172.982817,270.785858 L225.278274,239.9996 L258.894039,239.9996 C259.607078,239.9996 260.266189,239.619979 260.623998,239.003215 L276.432538,211.753606 C276.784652,211.146658 276.792933,210.399574 276.45436,209.784969 L260.045957,179.9992 L260.045957,179.9992 L260.045957,120.0008 L276.432874,91.7329622 C276.784781,91.1259138 276.792827,90.3788477 276.454076,89.7643609 L260.616222,61.0348489 C260.264433,60.3967102 259.593416,60.0004 258.864734,60.0004 L225.278274,60.0004 L225.278274,60.0004 L172.982817,30.7442546 L156.599092,1.03420799 C156.247262,0.396204005 155.576319,3.67255659e-14 154.847736,2.84217094e-14 L122.699531,2.84217094e-14 C121.98614,2.34457315e-14 121.326758,0.379993243 120.969078,0.997238985 L103.731317,30.7442546 L103.731317,30.7442546 L52.295457,60.0004 Z" id="Stroke-19"></path>
            </g>
        </g>
    </g>
</svg>